<?xml version="1.0" encoding="iso-8859-1"?>
<!-- Uploaded to: SVG Repo, www.svgrepo.com, Generator: SVG Repo Mixer Tools -->
<svg height="800px" width="800px" version="1.1" id="Layer_1" xmlns="http://www.w3.org/2000/svg" xmlns:xlink="http://www.w3.org/1999/xlink" 
	 viewBox="0 0 512 512" xml:space="preserve">
<polygon style="fill:#ABB9C6;" points="346.4,478.938 165.605,478.938 178.512,448.737 183.427,437.253 194.153,412.162 
	317.852,412.162 328.578,437.253 333.492,448.737 "/>
<polygon style="fill:#93A0AA;" points="328.578,437.253 183.427,437.253 194.153,412.162 317.852,412.162 "/>
<path style="fill:#B6C7D3;" d="M393.462,490.425H118.535l0,0c9.791-14.369,26.054-22.967,43.442-22.967h188.043
	C367.408,467.458,383.67,476.056,393.462,490.425L393.462,490.425z"/>
<path style="fill:#ABB9C6;" d="M512,55.095v326.991c0,18.511-14.997,33.52-33.509,33.52H33.509C14.997,415.606,0,400.597,0,382.086
	V55.095c0-18.511,14.997-33.52,33.509-33.52h444.983C497.003,21.575,512,36.584,512,55.095z"/>
<path style="fill:#C5D6E2;" d="M512,55.095v326.991c0,18.511-14.997,33.52-33.509,33.52H180.898l24.552-59.875L342.47,21.575
	h136.021C497.003,21.575,512,36.584,512,55.095z"/>
<path style="fill:#93A0AA;" d="M256.002,393.214c-3.448,0-6.634-2.135-7.958-5.317c-1.465-3.521-0.359-7.694,2.622-10.058
	c6.24-4.949,15.53,0.968,13.723,8.703C263.488,390.388,259.968,393.214,256.002,393.214z"/>
<path style="fill:#B8E9F2;" d="M511.999,55.095v300.636H0V55.095c0-18.511,14.996-33.52,33.507-33.52H478.49
	C497.003,21.575,511.999,36.585,511.999,55.095"/>
<path style="fill:#D4F7FC;" d="M511.999,55.095v300.636H205.45L342.47,21.575h136.021C497.003,21.575,511.999,36.585,511.999,55.095
	"/>
<g>
	<path style="fill:#609DC6;" d="M168.05,198.272l-13.741,6.927c-14.235,7.177-19.958,24.534-12.781,38.769
		c7.176,14.235,24.533,19.958,38.769,12.781l13.741-6.927L168.05,198.272z"/>
	<polyline style="fill:#609DC6;" points="377.03,223.006 302.33,218.194 248.615,191.22 258.337,130.932 298.896,68.014 
		312.424,94.851 377.03,223.006 	"/>
	<path style="fill:#609DC6;" d="M284.347,306.915c-8.762,4.421-19.43,2.09-25.551-5.581l-20.819-26.067l-14.676-18.373
		l28.008-14.125l9.853-4.971l30.064,37.643C299.448,285.74,296.117,300.99,284.347,306.915"/>
</g>
<g>
	<path style="fill:#E8D358;" d="M370.138,136.757c-2.728,0-5.358-1.503-6.67-4.105c-1.856-3.68-0.377-8.169,3.305-10.025
		l35.098-17.694c3.679-1.855,8.168-0.377,10.024,3.305c1.856,3.68,0.377,8.17-3.305,10.025l-35.097,17.694
		C372.416,136.5,371.27,136.757,370.138,136.757"/>
	<path style="fill:#E8D358;" d="M350.768,98.345c-1.835,0-3.671-0.672-5.112-2.027c-3.003-2.825-3.148-7.549-0.323-10.551
		l28.658-30.467c2.825-3.003,7.548-3.146,10.551-0.323c3.003,2.825,3.148,7.548,0.323,10.551l-28.658,30.467
		C354.737,97.556,352.756,98.345,350.768,98.345"/>
	<path style="fill:#E8D358;" d="M389.488,175.167c-3.731,0-6.953-2.792-7.403-6.587c-0.485-4.094,2.44-7.805,6.535-8.29
		l41.537-4.921c4.097-0.486,7.805,2.44,8.291,6.534c0.483,4.094-2.44,7.805-6.535,8.29l-41.537,4.921
		C390.077,175.15,389.781,175.167,389.488,175.167"/>
	<path style="fill:#E8D358;" d="M302.33,218.194l-51.021,25.723l-32.359,16.306c-9.416,4.754-20.912,0.965-25.655-8.452
		l-26.79-53.157c-4.755-9.416-0.966-20.9,8.451-25.654l83.381-42.029l21.669,42.982L302.33,218.194"/>
</g>
<path style="fill:#D4F7FC;" d="M389.488,175.167c-3.731,0-6.953-2.792-7.403-6.587c-0.485-4.094,2.44-7.805,6.535-8.29l41.537-4.921
	c0.299-0.036,0.596-0.053,0.889-0.053c3.732,0,6.952,2.792,7.402,6.587c0.483,4.094-2.44,7.805-6.535,8.29l-41.537,4.921
	C390.077,175.15,389.781,175.167,389.488,175.167 M370.138,136.757c-2.728,0-5.358-1.503-6.67-4.105
	c-1.856-3.68-0.377-8.169,3.305-10.025l35.098-17.694c1.077-0.543,2.224-0.8,3.353-0.8c2.728,0,5.358,1.501,6.671,4.105
	c1.856,3.68,0.377,8.17-3.305,10.025l-35.097,17.694C372.416,136.5,371.27,136.757,370.138,136.757 M350.768,98.345
	c-1.835,0-3.671-0.672-5.112-2.027c-3.003-2.825-3.148-7.549-0.323-10.551l28.658-30.467c1.469-1.561,3.451-2.35,5.437-2.35
	c1.834,0,3.671,0.672,5.112,2.027c3.003,2.825,3.148,7.548,0.323,10.551l-28.658,30.467
	C354.737,97.556,352.756,98.345,350.768,98.345 M478.491,21.575H342.47L312.424,94.85l0,0l64.606,128.155l-74.7-4.812
	l-40.511,20.424l29.407,36.82c8.222,10.301,4.892,25.551-6.879,31.476c-2.974,1.501-6.168,2.223-9.329,2.223
	c-6.152,0-12.179-2.738-16.223-7.804l-20.511-25.68l-32.836,80.077h306.55V55.094C511.999,36.585,497.003,21.575,478.491,21.575"/>
<g>
	<polyline style="fill:#7EAECF;" points="312.424,94.851 280.005,173.912 280.006,173.914 302.33,218.194 377.03,223.006 
		312.424,94.851 	"/>
	<path style="fill:#7EAECF;" d="M261.819,238.619l-10.51,5.298l-0.013,0.007l-13.011,31.73l20.511,25.68
		c4.043,5.068,10.071,7.804,16.223,7.804c3.16,0,6.355-0.722,9.329-2.223c11.77-5.925,15.101-21.175,6.879-31.476L261.819,238.619"
		/>
</g>
<g>
	<path style="fill:#EDD766;" d="M405.225,104.133c-1.13,0-2.276,0.257-3.353,0.8l-35.098,17.694
		c-3.682,1.856-5.161,6.345-3.305,10.025c1.313,2.603,3.941,4.105,6.67,4.105c1.131,0,2.277-0.258,3.354-0.8l35.097-17.694
		c3.682-1.856,5.161-6.345,3.305-10.025C410.583,105.635,407.953,104.133,405.225,104.133"/>
	<path style="fill:#EDD766;" d="M379.428,52.951c-1.987,0-3.969,0.789-5.437,2.35l-28.658,30.467
		c-2.825,3.003-2.68,7.726,0.323,10.551c1.441,1.356,3.279,2.027,5.112,2.027c1.988,0,3.969-0.788,5.437-2.35l28.658-30.467
		c2.825-3.003,2.68-7.726-0.323-10.551C383.1,53.623,381.262,52.951,379.428,52.951"/>
	<path style="fill:#EDD766;" d="M431.044,155.317c-0.293,0-0.59,0.017-0.889,0.053l-41.537,4.921
		c-4.095,0.486-7.02,4.196-6.535,8.29c0.45,3.795,3.672,6.587,7.403,6.587c0.293,0,0.589-0.017,0.887-0.053l41.537-4.921
		c4.095-0.485,7.019-4.196,6.535-8.29C437.996,158.108,434.776,155.317,431.044,155.317"/>
	<polyline style="fill:#EDD766;" points="280.005,173.912 251.296,243.924 251.309,243.917 261.819,238.619 302.33,218.194 
		280.006,173.914 280.005,173.912 	"/>
</g>
</svg>